<?xml version="1.0" encoding="UTF-8" standalone="no"?>
<svg
   viewBox="0 0 46 40"
   fill="currentColor"
   class="missive-logo"
   version="1.1"
   id="svg11"
   sodipodi:docname="missive.svg"
   width="46"
   height="40"
   inkscape:version="1.4.2 (ebf0e940d0, 2025-05-08)"
   xmlns:inkscape="http://www.inkscape.org/namespaces/inkscape"
   xmlns:sodipodi="http://sodipodi.sourceforge.net/DTD/sodipodi-0.dtd"
   xmlns="http://www.w3.org/2000/svg"
   xmlns:svg="http://www.w3.org/2000/svg">
  <defs
     id="defs11" />
  <sodipodi:namedview
     id="namedview11"
     pagecolor="#ffffff"
     bordercolor="#000000"
     borderopacity="0.25"
     inkscape:showpageshadow="2"
     inkscape:pageopacity="0.0"
     inkscape:pagecheckerboard="0"
     inkscape:deskcolor="#d1d1d1"
     inkscape:zoom="5.3"
     inkscape:cx="19.528302"
     inkscape:cy="19.90566"
     inkscape:window-width="1361"
     inkscape:window-height="849"
     inkscape:window-x="0"
     inkscape:window-y="0"
     inkscape:window-maximized="0"
     inkscape:current-layer="svg11" />
  <path
     d="m 21.033221,26.1822 c 0.5738,0.6366 1.3966,1.0017 2.2574,1.0017 0.8608,0 1.6835,-0.3651 2.2573,-1.0017 l 11.1533,-12.3738 c 0.2868,-0.3183 0.6982,-0.5008 1.1286,-0.5008 h 1.4778 c 0.2788,0 0.5047,-0.2243 0.5047,-0.5009 V 11.805 c 0,-0.2765 -0.2259,-0.5008 -0.5047,-0.5008 h -1.4778 c -1.0042,0 -1.9641,0.426 -2.6335,1.1687 l -11.1533,12.3737 c -0.2044,0.2268 -0.4902,0.3464 -0.7995,0.3329 -0.2801,-0.0121 -0.5401,-0.1495 -0.727,-0.3569 l -11.1316,-12.3497 c -0.6693,-0.7427 -1.6292402,-1.1687 -2.6335602,-1.1687 h -1.47777 c -0.27875,0 -0.50475,0.2243 -0.50475,0.5008 v 1.0017 c 0,0.2766 0.226,0.5009 0.50475,0.5009 h 1.47777 c 0.43042,0 0.84166,0.1825 1.12866,0.5008 z"
     class="path text-color-a"
     id="path1" />
  <path
     d="m 37.829821,27.0533 h 1.4778 c 0.2788,0 0.5047,0.2242 0.5047,0.5008 v 1.0017 c 0,0.2766 -0.2259,0.5009 -0.5047,0.5009 h -1.4778 c -1.0042,0 -1.9641,-0.426 -2.6337,-1.1688 l -4.0089,-4.4476 1.3544,-1.5026 4.1596,4.6147 c 0.2868,0.3183 0.6982,0.5009 1.1286,0.5009 z"
     class="path text-color-a"
     id="path2" />
  <path
     d="m 14.039621,21.9377 -4.1596002,4.6147 c -0.287,0.3183 -0.69824,0.5009 -1.12866,0.5009 h -1.47777 c -0.27888,0 -0.50475,0.2242 -0.50475,0.5008 v 1.0017 c 0,0.2766 0.22587,0.5009 0.50475,0.5009 h 1.47777 c 1.00432,0 1.9642602,-0.426 2.6335602,-1.1688 l 4.009,-4.4477 z"
     class="path text-color-a"
     id="path3" />
</svg>
